Coordinates
version=1
nRows=11
nColumns=36
inDegrees=yes

Units are S.I. units (second, meters, Newtons, ...)
If the header above contains a line with 'inDegrees', this indicates whether rotational values are in degrees (yes) or radians (no).

endheader
time	pelvis_tilt	pelvis_list	pelvis_rotation	pelvis_tx	pelvis_ty	pelvis_tz	hip_flexion_r	hip_adduction_r	hip_rotation_r	knee_angle_r	knee_angle_r_beta	ankle_angle_r	subtalar_angle_r	mtp_angle_r	hip_flexion_l	hip_adduction_l	hip_rotation_l	knee_angle_l	knee_angle_l_beta	ankle_angle_l	subtalar_angle_l	mtp_angle_l	lumbar_extension	lumbar_bending	lumbar_rotation	arm_flex_r	arm_add_r	arm_rot_r	elbow_flex_r	pro_sup_r	arm_flex_l	arm_add_l	arm_rot_l	elbow_flex_l	pro_sup_l
      1.42083330	    -24.24845454	      2.00882277	     -1.88344069	     -0.87621022	      1.12477646	     -0.08635454	     55.22669930	     -5.24572726	      3.98707470	     68.29714811	      1.19201010	     43.05009970	     -3.88013610	     -7.49999987	     54.16408709	     -5.79865115	     -3.56683238	     69.84843757	      1.21908521	     43.06730279	     -1.09473341	     -7.49999987	    -31.43344485	      0.20437152	      0.37123255	     25.13408288	    -13.82197782	      9.79515947	     23.33017359	     80.98584122	     29.51222492	    -14.02498781	     13.25184848	     29.85442949	     72.50862040
      1.42500000	    -24.09124267	      1.96080791	     -1.74934303	     -0.87284906	      1.12646533	     -0.08665380	     54.84250830	     -5.45886234	      3.87258881	     68.65658992	      1.19828355	     43.27757480	     -4.14979863	     -7.49999987	     53.98376905	     -5.66405868	     -3.41254021	     70.37249656	      1.22823177	     43.31803677	     -1.00985342	     -7.49999987	    -31.58314586	      0.38968179	      0.40864773	     25.82383652	    -13.89901653	      9.81471213	     23.49181540	     80.38850479	     30.48332804	    -13.95302294	     13.38645746	     29.94380928	     72.13945121
      1.42916670	    -23.92370804	      2.00421379	     -1.43707476	     -0.87206886	      1.12634936	     -0.08674457	     54.51462835	     -5.78810050	      3.77336459	     68.92280898	      1.20292995	     43.55922430	     -4.24060977	     -7.49999987	     53.73049424	     -5.33262397	     -3.23948367	     70.46886686	      1.22991375	     43.30179151	     -1.43630215	     -7.49999987	    -31.75262447	      0.46717624	      0.26536997	     26.49105104	    -13.93885076	      9.84605338	     23.59444995	     80.07583667	     31.58906659	    -13.94322376	     13.77461740	     29.92988387	     72.01565826
      1.43333330	    -23.87289207	      2.02327146	     -1.09835024	     -0.86867394	      1.12101904	     -0.08716469	     54.38895259	     -6.10710316	      3.63574337	     69.49537517	      1.21292311	     43.90036587	     -4.37721915	     -7.49999987	     53.71982175	     -5.05513893	     -2.99059163	     70.90998224	      1.23761266	     43.64797704	     -1.52332311	     -7.49999987	    -31.49251805	      0.59666882	      0.32121062	     26.86225520	    -14.20437948	     10.02960945	     23.79226257	     82.28681182	     32.84362089	    -14.06862366	     15.59298022	     29.83074760	     73.92437015
      1.43750000	    -23.98091260	      2.10210204	     -0.98147693	     -0.87235680	      1.12228878	     -0.09018057	     54.69632313	     -6.28746447	      3.72222465	     69.77127667	      1.21773850	     44.00422846	     -4.52801074	     -7.49999987	     54.03870618	     -4.70810556	     -2.81669449	     71.24309428	      1.24342656	     43.82928522	     -1.65704125	     -7.49999987	    -31.41447842	      0.70797202	      0.18087207	     27.81239180	    -14.26581851	      9.93984436	     24.07005896	     82.31193551	     34.11463584	    -14.01894143	     15.48683445	     30.19522611	     73.94459242
      1.44166670	    -24.01568328	      2.12858141	     -0.79972627	     -0.86485897	      1.11918936	     -0.08795943	     54.67586051	     -6.38107262	      3.66571703	     70.05936084	      1.22276652	     44.24949563	     -4.66994228	     -7.49999987	     53.99940418	     -4.46358390	     -2.53066633	     71.48127457	      1.24758359	     43.99859076	     -1.76576857	     -7.49999987	    -31.15014759	      0.74958868	      0.08446892	     28.42355541	    -14.28608392	      9.85716438	     24.24453960	     82.34660920	     35.11036394	    -13.99170009	     15.39548292	     30.50739837	     73.97311989
      1.44583330	    -24.06205916	      2.08392517	     -0.44177599	     -0.86462610	      1.11744412	     -0.08898155	     54.64064603	     -6.60848923	      3.35561657	     70.27542615	      1.22653757	     44.74627219	     -4.53062199	     -7.49999987	     54.12303019	     -4.14223732	     -2.17819442	     71.76038438	      1.25245498	     44.24998098	     -1.96518164	     -7.49999987	    -31.10821113	      1.02238872	      0.16511294	     29.09817419	    -14.56001099	      9.33583197	     24.84990588	     81.61736740	     36.30453238	    -13.74099359	     15.10587449	     31.44707559	     73.51538332
      1.45000000	    -23.91180566	      1.97798435	     -0.39547194	     -0.86306778	      1.11806023	     -0.08799967	     54.36577492	     -6.48197495	      3.22856323	     70.29313096	      1.22684658	     44.97542938	     -4.38794082	     -7.49999987	     54.04112570	     -4.11284209	     -1.80999413	     72.00011237	      1.25663902	     44.00901895	     -2.27006212	     -7.49999987	    -31.19418746	      1.16071213	      0.35580934	     29.96476052	    -14.66089754	      8.65048480	     25.25833838	     80.32045815	     37.51342111	    -13.51427829	     14.68757715	     32.02795360	     72.63043615
      1.45416670	    -24.03056439	      2.01390748	     -0.36024610	     -0.86278441	      1.11790005	     -0.08942258	     54.43660268	     -6.53281756	      3.08817247	     70.30891494	      1.22712206	     44.79921440	     -4.73238634	     -7.49999987	     54.12286088	     -3.92082222	     -1.66794950	     72.09248885	      1.25825130	     43.97812670	     -2.21999769	     -7.49999987	    -31.05531765	      1.22037292	      0.65400081	     30.81305632	    -14.88719509	      8.24231398	     25.91130926	     79.68156982	     38.77287795	    -13.37623330	     14.32093371	     32.90343952	     72.19864311
      1.45833330	    -23.89983579	      2.06553032	     -0.27483298	     -0.85910177	      1.11886730	     -0.08945270	     54.02420146	     -6.65999315	      3.00967821	     70.11509973	      1.22373935	     44.69239009	     -4.82932997	     -7.49999987	     53.81101572	     -3.70824772	     -1.58449249	     71.96331731	      1.25599683	     44.15852510	     -2.00663606	     -7.49999987	    -31.17001448	      1.28898614	      0.89478697	     31.73881353	    -14.99249316	      7.68886537	     26.34116721	     78.99197370	     40.06914155	    -13.11466847	     13.62222387	     33.49646075	     71.65902046
      1.46250000	    -24.01851733	      2.08521871	     -0.21199674	     -0.85419408	      1.11673485	     -0.09061861	     53.95835967	     -6.81652453	      3.00045762	     70.41001750	      1.22888663	     44.62234157	     -5.03822879	     -7.49999987	     53.73600137	     -3.50843467	     -1.47900440	     72.12018976	      1.25873477	     44.25689706	     -1.91835361	     -7.49999987	    -30.90974747	      1.37906326	      0.84181019	     32.69057200	    -14.97967418	      7.63313079	     26.69543538	     79.07685043	     41.31821554	    -13.10143758	     13.49487786	     33.83629361	     71.70187694
